<svg width="20" height="20" viewBox="0 0 20 20" fill="none" xmlns="http://www.w3.org/2000/svg">
<path d="M18.25 15.25C18.25 15.6478 18.092 16.0294 17.8107 16.3107C17.5294 16.592 17.1478 16.75 16.75 16.75H3.25C2.85218 16.75 2.47064 16.592 2.18934 16.3107C1.90804 16.0294 1.75 15.6478 1.75 15.25V7C1.75 6.60218 1.90804 6.22064 2.18934 5.93934C2.47064 5.65804 2.85218 5.5 3.25 5.5H6.25L7.75 3.25H12.25L13.75 5.5H16.75C17.1478 5.5 17.5294 5.65804 17.8107 5.93934C18.092 6.22064 18.25 6.60218 18.25 7V15.25Z" stroke="#98A2B3" stroke-width="1.5" stroke-linecap="round" stroke-linejoin="round"/>
<path d="M10 13.75C11.6569 13.75 13 12.4069 13 10.75C13 9.09315 11.6569 7.75 10 7.75C8.34315 7.75 7 9.09315 7 10.75C7 12.4069 8.34315 13.75 10 13.75Z" stroke="#98A2B3" stroke-width="1.5" stroke-linecap="round" stroke-linejoin="round"/>
</svg>
