<svg width="45" height="12" viewBox="0 0 45 12" fill="none" xmlns="http://www.w3.org/2000/svg">
<path d="M4.22923 0.818182V11H2.99627V2.1108H2.93661L0.450817 3.76136V2.50852L2.99627 0.818182H4.22923ZM17.568 10.3636L16.8024 9.60795L19.9544 6.45597H11.791V5.36222H19.9544L16.8024 2.22017L17.568 1.45455L22.0225 5.90909L17.568 10.3636ZM31.8303 11.1392C31.174 11.1392 30.589 11.0265 30.0753 10.8011C29.5649 10.5758 29.1589 10.2625 28.8572 9.86151C28.5589 9.45715 28.3965 8.98816 28.37 8.45455H29.6229C29.6494 8.78267 29.7621 9.06605 29.9609 9.30469C30.1598 9.54001 30.42 9.7223 30.7415 9.85156C31.063 9.98082 31.4193 10.0455 31.8104 10.0455C32.2479 10.0455 32.6357 9.96922 32.9737 9.81676C33.3118 9.6643 33.5769 9.45218 33.7692 9.1804C33.9614 8.90862 34.0575 8.59375 34.0575 8.2358C34.0575 7.86127 33.9647 7.53149 33.7791 7.24645C33.5935 6.9581 33.3217 6.73272 32.9638 6.57031C32.6058 6.40791 32.1683 6.3267 31.6513 6.3267H30.8359V5.23295H31.6513C32.0556 5.23295 32.4103 5.16004 32.7152 5.0142C33.0234 4.86837 33.2637 4.66288 33.4361 4.39773C33.6117 4.13258 33.6996 3.82102 33.6996 3.46307C33.6996 3.11837 33.6233 2.81842 33.4709 2.56321C33.3184 2.308 33.103 2.10914 32.8246 1.96662C32.5495 1.8241 32.2247 1.75284 31.8501 1.75284C31.4988 1.75284 31.1674 1.81747 30.8558 1.94673C30.5476 2.07268 30.2957 2.25663 30.1001 2.49858C29.9046 2.73722 29.7985 3.02557 29.782 3.36364H28.5888C28.6087 2.83002 28.7694 2.36269 29.071 1.96165C29.3726 1.55729 29.767 1.24242 30.2543 1.01705C30.7448 0.791666 31.2834 0.678977 31.87 0.678977C32.4998 0.678977 33.04 0.806581 33.4908 1.06179C33.9415 1.31368 34.2879 1.64678 34.5298 2.06108C34.7718 2.47538 34.8928 2.92282 34.8928 3.40341C34.8928 3.9768 34.742 4.46567 34.4403 4.87003C34.142 5.27438 33.736 5.55445 33.2223 5.71023V5.78977C33.8653 5.89583 34.3674 6.16927 34.7287 6.61009C35.09 7.04759 35.2706 7.58949 35.2706 8.2358C35.2706 8.7893 35.1198 9.28646 34.8182 9.72727C34.5199 10.1648 34.1122 10.5095 33.5952 10.7614C33.0781 11.0133 32.4898 11.1392 31.8303 11.1392ZM40.625 11.1392C39.8759 11.1392 39.2379 10.9354 38.7109 10.5277C38.1839 10.1167 37.7813 9.52178 37.5028 8.7429C37.2244 7.9607 37.0852 7.0161 37.0852 5.90909C37.0852 4.80871 37.2244 3.86908 37.5028 3.0902C37.7846 2.308 38.1889 1.71141 38.7159 1.30043C39.2462 0.886126 39.8826 0.678977 40.625 0.678977C41.3674 0.678977 42.0021 0.886126 42.5291 1.30043C43.0594 1.71141 43.4638 2.308 43.7422 3.0902C44.0239 3.86908 44.1648 4.80871 44.1648 5.90909C44.1648 7.0161 44.0256 7.9607 43.7472 8.7429C43.4688 9.52178 43.0661 10.1167 42.5391 10.5277C42.0121 10.9354 41.3741 11.1392 40.625 11.1392ZM40.625 10.0455C41.3674 10.0455 41.9441 9.6875 42.3551 8.97159C42.7661 8.25568 42.9716 7.23485 42.9716 5.90909C42.9716 5.02746 42.8771 4.27675 42.6882 3.65696C42.5026 3.03717 42.2341 2.56487 41.8828 2.24006C41.5348 1.91525 41.1155 1.75284 40.625 1.75284C39.8892 1.75284 39.3142 2.11577 38.8999 2.84162C38.4856 3.56416 38.2784 4.58665 38.2784 5.90909C38.2784 6.79072 38.3712 7.53977 38.5568 8.15625C38.7424 8.77273 39.0092 9.24171 39.3572 9.56321C39.7086 9.88471 40.1312 10.0455 40.625 10.0455Z" fill="#666D80"/>
</svg>
