<svg width="44" height="12" viewBox="0 0 44 12" fill="none" xmlns="http://www.w3.org/2000/svg">
<path d="M4.09002 11.1392C3.43377 11.1392 2.84878 11.0265 2.33505 10.8011C1.82463 10.5758 1.41862 10.2625 1.11701 9.86151C0.818715 9.45715 0.656309 8.98816 0.629794 8.45455H1.88264C1.90915 8.78267 2.02184 9.06605 2.2207 9.30469C2.41957 9.54001 2.67975 9.7223 3.00124 9.85156C3.32274 9.98082 3.67904 10.0455 4.07014 10.0455C4.50764 10.0455 4.89542 9.96922 5.23349 9.81676C5.57156 9.6643 5.83671 9.45218 6.02894 9.1804C6.22118 8.90862 6.31729 8.59375 6.31729 8.2358C6.31729 7.86127 6.22449 7.53149 6.03889 7.24645C5.85328 6.9581 5.5815 6.73272 5.22354 6.57031C4.86559 6.40791 4.42809 6.3267 3.91104 6.3267H3.0957V5.23295H3.91104C4.3154 5.23295 4.67004 5.16004 4.97496 5.0142C5.2832 4.86837 5.5235 4.66288 5.69585 4.39773C5.87151 4.13258 5.95934 3.82102 5.95934 3.46307C5.95934 3.11837 5.88311 2.81842 5.73065 2.56321C5.57818 2.308 5.36275 2.10914 5.08434 1.96662C4.80924 1.8241 4.48443 1.75284 4.10991 1.75284C3.75858 1.75284 3.42714 1.81747 3.11559 1.94673C2.80735 2.07268 2.55546 2.25663 2.35991 2.49858C2.16436 2.73722 2.0583 3.02557 2.04173 3.36364H0.848544C0.86843 2.83002 1.02918 2.36269 1.33079 1.96165C1.6324 1.55729 2.02681 1.24242 2.51403 1.01705C3.00456 0.791666 3.54315 0.678977 4.12979 0.678977C4.75953 0.678977 5.29978 0.806581 5.75053 1.06179C6.20129 1.31368 6.54764 1.64678 6.7896 2.06108C7.03155 2.47538 7.15252 2.92282 7.15252 3.40341C7.15252 3.9768 7.00172 4.46567 6.70011 4.87003C6.40181 5.27438 5.9958 5.55445 5.48207 5.71023V5.78977C6.12506 5.89583 6.62719 6.16927 6.98846 6.61009C7.34973 7.04759 7.53036 7.58949 7.53036 8.2358C7.53036 8.7893 7.37956 9.28646 7.07795 9.72727C6.77965 10.1648 6.37198 10.5095 5.85494 10.7614C5.33789 11.0133 4.74959 11.1392 4.09002 11.1392ZM12.8848 11.1392C12.1357 11.1392 11.4977 10.9354 10.9707 10.5277C10.4437 10.1167 10.041 9.52178 9.76261 8.7429C9.4842 7.9607 9.34499 7.0161 9.34499 5.90909C9.34499 4.80871 9.4842 3.86908 9.76261 3.0902C10.0443 2.308 10.4487 1.71141 10.9757 1.30043C11.506 0.886126 12.1423 0.678977 12.8848 0.678977C13.6272 0.678977 14.2619 0.886126 14.7889 1.30043C15.3192 1.71141 15.7235 2.308 16.002 3.0902C16.2837 3.86908 16.4245 4.80871 16.4245 5.90909C16.4245 7.0161 16.2853 7.9607 16.0069 8.7429C15.7285 9.52178 15.3258 10.1167 14.7988 10.5277C14.2718 10.9354 13.6338 11.1392 12.8848 11.1392ZM12.8848 10.0455C13.6272 10.0455 14.2039 9.6875 14.6149 8.97159C15.0259 8.25568 15.2314 7.23485 15.2314 5.90909C15.2314 5.02746 15.1369 4.27675 14.948 3.65696C14.7624 3.03717 14.4939 2.56487 14.1426 2.24006C13.7946 1.91525 13.3753 1.75284 12.8848 1.75284C12.149 1.75284 11.5739 2.11577 11.1596 2.84162C10.7453 3.56416 10.5382 4.58665 10.5382 5.90909C10.5382 6.79072 10.631 7.53977 10.8166 8.15625C11.0022 8.77273 11.269 9.24171 11.617 9.56321C11.9683 9.88471 12.3909 10.0455 12.8848 10.0455ZM28.7243 10.3636L27.9586 9.60795L31.1106 6.45597H22.9473V5.36222H31.1106L27.9586 2.22017L28.7243 1.45455L33.1788 5.90909L28.7243 10.3636ZM43.1257 0.818182V11H41.8928V2.1108H41.8331L39.3473 3.76136V2.50852L41.8928 0.818182H43.1257Z" fill="#666D80"/>
</svg>
