<svg width="20" height="20" viewBox="0 0 20 20" fill="none" xmlns="http://www.w3.org/2000/svg">
<path d="M15.25 3.25H4.75C3.92157 3.25 3.25 3.92157 3.25 4.75V15.25C3.25 16.0784 3.92157 16.75 4.75 16.75H15.25C16.0784 16.75 16.75 16.0784 16.75 15.25V4.75C16.75 3.92157 16.0784 3.25 15.25 3.25Z" stroke="#98A2B3" stroke-width="1.5" stroke-linecap="round" stroke-linejoin="round"/>
<path d="M16.75 12.25L13 8.5L4.75 16.75" stroke="#98A2B3" stroke-width="1.5" stroke-linecap="round" stroke-linejoin="round"/>
<path d="M7.375 8.5C7.99632 8.5 8.5 7.99632 8.5 7.375C8.5 6.75368 7.99632 6.25 7.375 6.25C6.75368 6.25 6.25 6.75368 6.25 7.375C6.25 7.99632 6.75368 8.5 7.375 8.5Z" stroke="#98A2B3" stroke-width="1.5" stroke-linecap="round" stroke-linejoin="round"/>
</svg>
