<svg width="12" height="12" viewBox="0 0 12 12" fill="none" xmlns="http://www.w3.org/2000/svg">
<path fill-rule="evenodd" clip-rule="evenodd" d="M2.15999 0.240234C1.0996 0.240234 0.23999 1.09985 0.23999 2.16023V9.84023C0.23999 10.9006 1.0996 11.7602 2.15999 11.7602H9.83999C10.9004 11.7602 11.76 10.9006 11.76 9.84023V2.16023C11.76 1.09985 10.9004 0.240234 9.83999 0.240234H2.15999ZM7.30703 9.01144L7.19972 9.4501C6.87779 9.57716 6.62064 9.67387 6.42915 9.74036C6.23745 9.80706 6.01472 9.84023 5.76093 9.84023C5.37121 9.84023 5.06808 9.74476 4.85188 9.55513C4.63568 9.36475 4.52755 9.12349 4.52755 8.83082C4.52755 8.71753 4.53539 8.60099 4.55171 8.48226C4.56816 8.36339 4.59431 8.22951 4.63011 8.07987L5.03242 6.65589C5.06822 6.51953 5.09864 6.39034 5.12301 6.26816C5.14772 6.14674 5.15962 6.03503 5.15962 5.93447C5.15962 5.75261 5.12197 5.62541 5.04702 5.5539C4.97206 5.48259 4.82903 5.44638 4.61668 5.44638C4.51268 5.44638 4.40578 5.46304 4.29682 5.49525C4.18738 5.5276 4.09384 5.55885 4.0153 5.5879L4.12289 5.14889C4.38644 5.04159 4.63836 4.9497 4.87934 4.87343C5.12032 4.79696 5.34802 4.75869 5.56339 4.75869C5.95043 4.75869 6.24909 4.85223 6.45882 5.03931C6.66854 5.22653 6.77338 5.46923 6.77338 5.76831C6.77338 5.83019 6.76649 5.93922 6.75169 6.09505C6.73724 6.25123 6.71033 6.39433 6.67109 6.52449L6.27049 7.94276C6.23766 8.05668 6.20813 8.1869 6.18246 8.33345C6.15596 8.47902 6.14329 8.59026 6.14329 8.66487C6.14329 8.85319 6.18528 8.98177 6.26946 9.05012C6.35426 9.11847 6.50032 9.15247 6.70778 9.15247C6.80518 9.15247 6.91599 9.13519 7.03913 9.10126C7.16193 9.06733 7.25148 9.03752 7.30703 9.01144ZM7.40862 3.05711C7.40862 3.30421 7.31549 3.51525 7.12834 3.68877C6.94167 3.86292 6.71673 3.95006 6.45359 3.95006C6.18962 3.95006 5.96413 3.86292 5.77532 3.68877C5.58686 3.51518 5.49242 3.30421 5.49242 3.05711C5.49242 2.81048 5.58686 2.5991 5.77532 2.42338C5.96378 2.24793 6.18969 2.16023 6.45359 2.16023C6.71666 2.16023 6.94167 2.24813 7.12834 2.42338C7.31563 2.5991 7.40862 2.81055 7.40862 3.05711Z" fill="#818898"/>
</svg>
