<svg width="20" height="20" viewBox="0 0 20 20" fill="none" xmlns="http://www.w3.org/2000/svg">
<path d="M17.08 9.28768L10.1875 16.1802C9.34309 17.0246 8.19786 17.4989 7.00372 17.4989C5.80959 17.4989 4.66436 17.0246 3.81997 16.1802C2.97559 15.3358 2.50122 14.1906 2.50122 12.9964C2.50122 11.8023 2.97559 10.6571 3.81997 9.81268L10.7125 2.92018C11.2754 2.35726 12.0389 2.04102 12.835 2.04102C13.6311 2.04102 14.3946 2.35726 14.9575 2.92018C15.5204 3.48311 15.8366 4.24659 15.8366 5.04268C15.8366 5.83878 15.5204 6.60226 14.9575 7.16518L8.05747 14.0577C7.77601 14.3391 7.39427 14.4973 6.99622 14.4973C6.59818 14.4973 6.21643 14.3391 5.93497 14.0577C5.65351 13.7762 5.49539 13.3945 5.49539 12.9964C5.49539 12.5984 5.65351 12.2166 5.93497 11.9352L12.3025 5.57518" stroke="#98A2B3" stroke-width="1.5" stroke-linecap="round" stroke-linejoin="round"/>
</svg>
